<svg xmlns="http://www.w3.org/2000/svg" width="120" height="120" viewBox="0 0 120 120" fill="none">
  <!-- Outer hexagonal structure with emerald accent -->
  <g opacity="0.9" stroke="#10d97f" stroke-width="1.4">
    <path d="M60 2L116 34V86L60 118L4 86V34Z"/>
    <path d="M60 20L98 42V78L60 100L22 78V42Z"/>
    <path d="M60 44L80 56V78L60 90L40 78V56Z"/>
  </g>
  
  <!-- Diagonal connecting lines with brass accent -->
  <g opacity="0.6" stroke="#e8c870" stroke-width="1">
    <path d="M4 34L60 66L116 34"/>
    <path d="M4 86L60 54L116 86"/>
    <path d="M22 42L60 22L98 42"/>
    <path d="M22 78L60 98L98 78"/>
  </g>
  
  <!-- Subtle corner accents -->
  <g opacity="0.4" stroke="#10d97f" stroke-width="0.6">
    <circle cx="60" cy="2" r="3"/>
    <circle cx="116" cy="34" r="3"/>
    <circle cx="116" cy="86" r="3"/>
    <circle cx="60" cy="118" r="3"/>
    <circle cx="4" cy="86" r="3"/>
    <circle cx="4" cy="34" r="3"/>
  </g>
  
  <!-- Center jewel with gradient effect -->
  <circle cx="60" cy="60" r="8" fill="#10d97f" fill-opacity="0.8"/>
  <circle cx="60" cy="60" r="5" fill="#e8c870" fill-opacity="0.6"/>
  <circle cx="60" cy="60" r="2.5" fill="#ffffff" fill-opacity="0.9"/>
</svg>
